<?xml version="1.0" encoding="UTF-8"?>
<svg width="512px" height="512px" viewBox="0 0 512 512" version="1.1" xmlns="http://www.w3.org/2000/svg" xmlns:xlink="http://www.w3.org/1999/xlink" style="background: #FFFFFF;">
    <!-- Generator: Sketch 45 (43475) - http://www.bohemiancoding.com/sketch -->
    <title>512</title>
    <desc>Created with Sketch.</desc>
    <defs></defs>
    <g id="Page-1" stroke="none" stroke-width="1" fill="none" fill-rule="evenodd">
        <g id="512">
            <g id="Lichee" transform="translate(97.000000, 67.000000)">
                <g id="Group" transform="translate(0.000000, 37.595311)">
                    <path d="M137.559918,9.12586598 C137.559918,9.12586598 133.375053,1.02081359 123.367768,2.09829471 C113.360482,3.17577582 109.734238,9.12586598 109.734238,9.12586598 C109.734238,9.12586598 98.3040664,1.22832847 90.8871836,4.78800682 C83.4703008,8.34768518 83.9036306,20.9254814 83.9036306,20.9254814 C83.9036306,20.9254814 74.8459999,18.139195 70.7792434,20.9254814 C66.7124869,23.7117677 66.1219453,30.6643144 66.1219453,30.6643144 C66.1219453,30.6643144 54.6877838,27.1812569 46.4194039,33.2774056 C38.151024,39.3735544 41.740559,50.1595394 41.740559,50.1595394 C41.740559,50.1595394 28.3592064,51.7582021 23.6316818,57.8822855 C18.9041572,64.0063689 22.0052984,71.2063372 22.0052984,71.2063372 C22.0052984,71.2063372 9.37568922,74.8186924 7.45164097,82.3115759 C5.52759271,89.8044594 11.6612447,92.0679678 11.6612447,92.0679678 C11.6612447,92.0679678 3.97782012,95.2924298 2.57408686,105.94353 C1.1703536,116.594631 9.44751185,124.250333 9.44751185,124.250333 C9.44751185,124.250333 2.49827409,127.971235 0.814432608,139.671882 C-0.869408877,151.372528 9.71405358,154.748636 9.71405358,154.748636 C9.71405358,154.748636 3.76235225,160.37628 5.9984299,172.928536 C8.23450755,185.480792 18.653576,189.788322 18.653576,189.788322 C18.653576,189.788322 13.2995985,197.625999 17.1085916,205.250575 C20.9175847,212.875151 26.3114636,215.054057 26.3114636,215.054057 C26.3114636,215.054057 24.7984004,220.328127 27.4781822,226.287795 C30.1579641,232.247463 34.9078335,232.488499 34.9078335,232.488499 C34.9078335,232.488499 30.9200819,236.745747 33.2734699,244.455723 C35.6268578,252.165699 45.0140746,255.870638 45.0140746,255.870638 C45.0140746,255.870638 42.2991794,260.912451 46.4194039,268.375804 C50.5396283,275.839156 65.3574334,280.702188 65.3574334,280.702188 C65.3574334,280.702188 64.2026852,285.3593 68.6253627,288.755361 C73.0480402,292.151422 77.2145504,291.042814 77.2145504,291.042814 C77.2145504,291.042814 81.423299,303.765205 86.3982697,307.746166 C91.3732404,311.727126 101.390045,310.38799 101.390045,310.38799 C101.390045,310.38799 102.409128,317.544859 109.734238,320.125226 C117.059347,322.705594 118.645031,320.125226 118.645031,320.125226 C118.645031,320.125226 121.344764,334.241825 130.969793,336.987407 C140.594823,339.732988 145.78281,334.80451 145.78281,334.80451 C145.78281,334.80451 149.239872,340.349148 156.919307,340.349148 C164.598741,340.349148 166.164474,335.586681 166.164474,335.586681 C166.164474,335.586681 173.343545,339.399368 178.964064,338.193387 C184.584583,336.987407 188.386394,332.831522 188.386394,332.831522 C188.386394,332.831522 192.463525,336.368853 200.71754,335.586681 C208.971555,334.80451 213.758932,325.613197 213.758932,325.613197 C213.758932,325.613197 221.295519,328.189574 226.704561,325.613197 C232.113603,323.03682 232.113603,313.855084 232.113603,313.855084 C232.113603,313.855084 239.168978,314.798479 242.972385,310.38799 C246.775792,305.9775 244.920374,300.796013 244.920374,300.796013 C244.920374,300.796013 254.130428,302.592613 256.862082,298.339356 C259.593736,294.086099 257.995284,290.179233 257.995284,290.179233 C257.995284,290.179233 264.982827,289.375512 268.316992,284.316937 C271.651158,279.258363 268.316992,273.562079 268.316992,273.562079 C268.316992,273.562079 279.160612,274.394533 282.420561,268.375804 C285.680511,262.357074 279.751154,256.236183 279.751154,256.236183 C279.751154,256.236183 285.780245,253.327702 287.907012,250.255764 C290.033778,247.183826 287.907012,244.455723 287.907012,244.455723 C287.907012,244.455723 302.252384,236.570956 302.252384,226.287795 C302.252384,216.004635 297.416327,215.995855 297.416327,215.995855 C297.416327,215.995855 302.411989,212.127299 304.986431,207.980194 C307.560873,203.833089 304.986431,194.599475 304.986431,194.599475 C304.986431,194.599475 311.912526,191.55179 313.300299,181.78144 C314.688072,172.01109 307.800282,165.129169 307.800282,165.129169 C307.800282,165.129169 313.300299,158.755269 313.300299,152.996731 C313.300299,147.238193 307.560873,147.238193 307.560873,147.238193 C307.560873,147.238193 317.413341,142.037551 317.413341,133.863061 C317.413341,125.688571 309.55435,117.806198 309.55435,117.806198 C309.55435,117.806198 313.300299,114.035812 313.300299,110.55914 C313.300299,107.082468 309.884734,103.230672 309.884734,103.230672 C309.884734,103.230672 315.778978,97.036353 311.665935,88.8339282 C307.552893,80.6315035 300.148779,81.211747 300.148779,81.211747 C300.148779,81.211747 303.537211,74.5896279 298.514415,65.9450368 C293.49162,57.3004457 283.715763,57.8822855 283.715763,57.8822855 C283.715763,57.8822855 286.287811,46.9454531 281.143715,42.3833183 C275.999619,37.8211834 266.735299,39.8907453 266.735299,39.8907453 C266.735299,39.8907453 268.316992,30.6643144 263.559941,27.6864759 C258.802889,24.7086373 252.795326,25.7733483 252.795326,25.7733483 C252.795326,25.7733483 248.011939,14.6090477 239.428338,13.3791229 C230.844736,12.1491982 226.704561,19.4010452 226.704561,19.4010452 C226.704561,19.4010452 225.774059,7.29175368 218.673196,7.29175368 C211.572332,7.29175368 210.052885,11.8490997 210.052885,11.8490997 C210.052885,11.8490997 207.562236,0.545923765 198.955492,0.545923765 C190.348747,0.545923765 189.229113,6.77775528 189.229113,6.77775528 C189.229113,6.77775528 184.381086,-0.660855084 176.427129,0.545923765 C168.473173,1.75270261 164.598741,7.29175368 164.598741,7.29175368 C164.598741,7.29175368 159.023113,0.545923765 150.483202,2.09829471 C141.943291,3.65066565 137.559918,9.12586598 137.559918,9.12586598 Z" id="Path-2" fill="#D82355"></path>
                    <ellipse id="Oval-3" fill="#EF3471" cx="228.793801" cy="100.526594" rx="7.35463656" ry="8.99018317"></ellipse>
                    <ellipse id="Oval-18" fill="#EF3471" transform="translate(239.417165, 244.369524) rotate(21.000000) translate(-239.417165, -244.369524) " cx="239.417165" cy="244.369524" rx="6.53745472" ry="7.35560441"></ellipse>
                    <ellipse id="Oval-19" fill="#EF3471" transform="translate(246.414021, 273.583072) rotate(30.000000) translate(-246.414021, -273.583072) " cx="246.414021" cy="273.583072" rx="5.72027288" ry="7.35560441"></ellipse>
                    <ellipse id="Oval-20" fill="#EF3471" transform="translate(220.805186, 264.288679) rotate(48.000000) translate(-220.805186, -264.288679) " cx="220.805186" cy="264.288679" rx="7.35463656" ry="5.72102566"></ellipse>
                    <ellipse id="Oval-4" fill="#EF3471" transform="translate(266.216013, 105.123320) rotate(30.000000) translate(-266.216013, -105.123320) " cx="266.216013" cy="105.12332" rx="7.35463656" ry="11.4420513"></ellipse>
                    <ellipse id="Oval-5" fill="#EF3471" transform="translate(253.367692, 137.631020) rotate(-17.000000) translate(-253.367692, -137.631020) " cx="253.367692" cy="137.63102" rx="8.17181839" ry="9.80747255"></ellipse>
                    <ellipse id="Oval-2" fill="#EF3471" cx="254.126438" cy="71.9214654" rx="8.17181839" ry="8.17289379"></ellipse>
                    <ellipse id="Oval" fill="#EF3471" cx="220.621983" cy="62.9312822" rx="5.72027288" ry="5.72102566"></ellipse>
                </g>
                <g id="Group-2" transform="translate(22.786021, 66.216606)" fill="#BB1049">
                    <ellipse id="Oval-6" transform="translate(100.591323, 8.156728) rotate(-18.000000) translate(-100.591323, -8.156728) " cx="100.591323" cy="8.15672763" rx="8.17181839" ry="5.72102566"></ellipse>
                    <ellipse id="Oval-7" transform="translate(65.202693, 26.338865) rotate(22.000000) translate(-65.202693, -26.338865) " cx="65.202693" cy="26.3388654" rx="8.98900023" ry="9.80747255"></ellipse>
                    <ellipse id="Oval-8" cx="98.9569597" cy="71.0880098" rx="9.80618207" ry="6.53831504"></ellipse>
                    <ellipse id="Oval-9" cx="59.7322314" cy="76.8090355" rx="9.80618207" ry="7.35560441"></ellipse>
                    <ellipse id="Oval-10" cx="37.6683218" cy="51.4730647" rx="7.35463656" ry="8.17289379"></ellipse>
                    <ellipse id="Oval-11" transform="translate(13.970048, 91.754427) rotate(21.000000) translate(-13.970048, -91.754427) " cx="13.9700484" cy="91.7544271" rx="11.4405458" ry="8.99018317"></ellipse>
                    <ellipse id="Oval-12" transform="translate(47.945459, 115.470656) rotate(-14.000000) translate(-47.945459, -115.470656) " cx="47.9454586" cy="115.470656" rx="8.98900023" ry="9.80747255"></ellipse>
                    <ellipse id="Oval-12-Copy" transform="translate(86.599415, 118.584371) rotate(-72.000000) translate(-86.599415, -118.584371) " cx="86.5994154" cy="118.584371" rx="9.53952267" ry="7.96658181"></ellipse>
                    <ellipse id="Oval-13" transform="translate(27.084128, 149.526583) rotate(-18.000000) translate(-27.084128, -149.526583) " cx="27.0841279" cy="149.526583" rx="9.80618207" ry="12.2593407"></ellipse>
                    <ellipse id="Oval-14" cx="66.2696861" cy="164.258999" rx="11.4405458" ry="11.4420513"></ellipse>
                    <ellipse id="Oval-15" transform="translate(49.917346, 205.946517) rotate(55.000000) translate(-49.917346, -205.946517) " cx="49.9173463" cy="205.946517" rx="9.80618207" ry="13.0766301"></ellipse>
                    <ellipse id="Oval-16" transform="translate(93.572296, 190.412259) rotate(21.000000) translate(-93.572296, -190.412259) " cx="93.5722959" cy="190.412259" rx="6.53745472" ry="8.99018317"></ellipse>
                    <ellipse id="Oval-17" cx="88.3335958" cy="235.363175" rx="8.98900023" ry="8.99018317"></ellipse>
                    <ellipse id="Oval-21" cx="126.741142" cy="254.160831" rx="6.53745472" ry="8.17289379"></ellipse>
                    <ellipse id="Oval-22" cx="109.580324" cy="273.775776" rx="8.98900023" ry="8.17289379"></ellipse>
                </g>
                <path d="M141.355344,43.3179334 C141.355344,43.3179334 142.866014,35.3126478 147.659775,19.60856 C152.453536,3.90447231 158.05969,0 158.05969,0 L185.319568,3.90447231 C185.319568,3.90447231 182.276683,12.4269489 180.989462,20.5447714 C179.702241,28.6625939 180.989462,38.8467858 180.989462,38.8467858 L164.853313,53.3105731 L141.355344,43.3179334 Z" id="Path-3" stroke="#91370F" fill="#91370F"></path>
            </g>
        </g>
    </g>
</svg>